<?xml version="1.0" encoding="utf-8" standalone="no"?>
<!DOCTYPE svg PUBLIC "-//W3C//DTD SVG 1.1//EN"
  "http://www.w3.org/Graphics/SVG/1.1/DTD/svg11.dtd">
<svg xmlns:xlink="http://www.w3.org/1999/xlink" width="864pt" height="216pt" viewBox="0 0 864 216" xmlns="http://www.w3.org/2000/svg" version="1.1">
 <metadata>
  <rdf:RDF xmlns:dc="http://purl.org/dc/elements/1.1/" xmlns:cc="http://creativecommons.org/ns#" xmlns:rdf="http://www.w3.org/1999/02/22-rdf-syntax-ns#">
   <cc:Work>
    <dc:type rdf:resource="http://purl.org/dc/dcmitype/StillImage"/>
    <dc:date>2022-12-23T13:45:14.646265</dc:date>
    <dc:format>image/svg+xml</dc:format>
    <dc:creator>
     <cc:Agent>
      <dc:title>Matplotlib v3.5.1, https://matplotlib.org/</dc:title>
     </cc:Agent>
    </dc:creator>
   </cc:Work>
  </rdf:RDF>
 </metadata>
 <defs>
  <style type="text/css">*{stroke-linejoin: round; stroke-linecap: butt}</style>
 </defs>
 <g id="figure_1">
  <g id="patch_1">
   <path d="M 0 216 
L 864 216 
L 864 0 
L 0 0 
z
" style="fill: #ffffff"/>
  </g>
  <g id="axes_1">
   <g id="patch_2">
    <path d="M 48.31 188.12 
L 284.46 188.12 
L 284.46 65.616 
L 48.31 65.616 
z
" style="fill: #ffffff"/>
   </g>
   <g id="matplotlib.axis_1">
    <g id="xtick_1">
     <g id="line2d_1">
      <path d="M 48.31 188.12 
L 48.31 65.616 
" clip-path="url(#p7d66e7c3d2)" style="fill: none; stroke-dasharray: 0.8,3.2,0.8,3.2; stroke-dashoffset: 0; stroke: #000000; stroke-width: 0.8"/>
     </g>
     <g id="line2d_2">
      <defs>
       <path id="mf6f05cda0a" d="M 0 0 
L 0 3.5 
" style="stroke: #000000; stroke-width: 0.8"/>
      </defs>
      <g>
       <use xlink:href="#mf6f05cda0a" x="48.31" y="188.12" style="stroke: #000000; stroke-width: 0.8"/>
      </g>
     </g>
     <g id="text_1">
      <!-- 0 -->
      <g transform="translate(45.12875 202.718437)scale(0.1 -0.1)">
       <defs>
        <path id="DejaVuSans-30" d="M 2034 4250 
Q 1547 4250 1301 3770 
Q 1056 3291 1056 2328 
Q 1056 1369 1301 889 
Q 1547 409 2034 409 
Q 2525 409 2770 889 
Q 3016 1369 3016 2328 
Q 3016 3291 2770 3770 
Q 2525 4250 2034 4250 
z
M 2034 4750 
Q 2819 4750 3233 4129 
Q 3647 3509 3647 2328 
Q 3647 1150 3233 529 
Q 2819 -91 2034 -91 
Q 1250 -91 836 529 
Q 422 1150 422 2328 
Q 422 3509 836 4129 
Q 1250 4750 2034 4750 
z
" transform="scale(0.015625)"/>
       </defs>
       <use xlink:href="#DejaVuSans-30"/>
      </g>
     </g>
    </g>
    <g id="xtick_2">
     <g id="line2d_3">
      <path d="M 104.53619 188.12 
L 104.53619 65.616 
" clip-path="url(#p7d66e7c3d2)" style="fill: none; stroke-dasharray: 0.8,3.2,0.8,3.2; stroke-dashoffset: 0; stroke: #000000; stroke-width: 0.8"/>
     </g>
     <g id="line2d_4">
      <g>
       <use xlink:href="#mf6f05cda0a" x="104.53619" y="188.12" style="stroke: #000000; stroke-width: 0.8"/>
      </g>
     </g>
     <g id="text_2">
      <!-- 5 -->
      <g transform="translate(101.35494 202.718437)scale(0.1 -0.1)">
       <defs>
        <path id="DejaVuSans-35" d="M 691 4666 
L 3169 4666 
L 3169 4134 
L 1269 4134 
L 1269 2991 
Q 1406 3038 1543 3061 
Q 1681 3084 1819 3084 
Q 2600 3084 3056 2656 
Q 3513 2228 3513 1497 
Q 3513 744 3044 326 
Q 2575 -91 1722 -91 
Q 1428 -91 1123 -41 
Q 819 9 494 109 
L 494 744 
Q 775 591 1075 516 
Q 1375 441 1709 441 
Q 2250 441 2565 725 
Q 2881 1009 2881 1497 
Q 2881 1984 2565 2268 
Q 2250 2553 1709 2553 
Q 1456 2553 1204 2497 
Q 953 2441 691 2322 
L 691 4666 
z
" transform="scale(0.015625)"/>
       </defs>
       <use xlink:href="#DejaVuSans-35"/>
      </g>
     </g>
    </g>
    <g id="xtick_3">
     <g id="line2d_5">
      <path d="M 160.762381 188.12 
L 160.762381 65.616 
" clip-path="url(#p7d66e7c3d2)" style="fill: none; stroke-dasharray: 0.8,3.2,0.8,3.2; stroke-dashoffset: 0; stroke: #000000; stroke-width: 0.8"/>
     </g>
     <g id="line2d_6">
      <g>
       <use xlink:href="#mf6f05cda0a" x="160.762381" y="188.12" style="stroke: #000000; stroke-width: 0.8"/>
      </g>
     </g>
     <g id="text_3">
      <!-- 10 -->
      <g transform="translate(154.399881 202.718437)scale(0.1 -0.1)">
       <defs>
        <path id="DejaVuSans-31" d="M 794 531 
L 1825 531 
L 1825 4091 
L 703 3866 
L 703 4441 
L 1819 4666 
L 2450 4666 
L 2450 531 
L 3481 531 
L 3481 0 
L 794 0 
L 794 531 
z
" transform="scale(0.015625)"/>
       </defs>
       <use xlink:href="#DejaVuSans-31"/>
       <use xlink:href="#DejaVuSans-30" x="63.623047"/>
      </g>
     </g>
    </g>
    <g id="xtick_4">
     <g id="line2d_7">
      <path d="M 216.988571 188.12 
L 216.988571 65.616 
" clip-path="url(#p7d66e7c3d2)" style="fill: none; stroke-dasharray: 0.8,3.2,0.8,3.2; stroke-dashoffset: 0; stroke: #000000; stroke-width: 0.8"/>
     </g>
     <g id="line2d_8">
      <g>
       <use xlink:href="#mf6f05cda0a" x="216.988571" y="188.12" style="stroke: #000000; stroke-width: 0.8"/>
      </g>
     </g>
     <g id="text_4">
      <!-- 15 -->
      <g transform="translate(210.626071 202.718437)scale(0.1 -0.1)">
       <use xlink:href="#DejaVuSans-31"/>
       <use xlink:href="#DejaVuSans-35" x="63.623047"/>
      </g>
     </g>
    </g>
    <g id="xtick_5">
     <g id="line2d_9">
      <path d="M 273.214762 188.12 
L 273.214762 65.616 
" clip-path="url(#p7d66e7c3d2)" style="fill: none; stroke-dasharray: 0.8,3.2,0.8,3.2; stroke-dashoffset: 0; stroke: #000000; stroke-width: 0.8"/>
     </g>
     <g id="line2d_10">
      <g>
       <use xlink:href="#mf6f05cda0a" x="273.214762" y="188.12" style="stroke: #000000; stroke-width: 0.8"/>
      </g>
     </g>
     <g id="text_5">
      <!-- 20 -->
      <g transform="translate(266.852262 202.718437)scale(0.1 -0.1)">
       <defs>
        <path id="DejaVuSans-32" d="M 1228 531 
L 3431 531 
L 3431 0 
L 469 0 
L 469 531 
Q 828 903 1448 1529 
Q 2069 2156 2228 2338 
Q 2531 2678 2651 2914 
Q 2772 3150 2772 3378 
Q 2772 3750 2511 3984 
Q 2250 4219 1831 4219 
Q 1534 4219 1204 4116 
Q 875 4013 500 3803 
L 500 4441 
Q 881 4594 1212 4672 
Q 1544 4750 1819 4750 
Q 2544 4750 2975 4387 
Q 3406 4025 3406 3419 
Q 3406 3131 3298 2873 
Q 3191 2616 2906 2266 
Q 2828 2175 2409 1742 
Q 1991 1309 1228 531 
z
" transform="scale(0.015625)"/>
       </defs>
       <use xlink:href="#DejaVuSans-32"/>
       <use xlink:href="#DejaVuSans-30" x="63.623047"/>
      </g>
     </g>
    </g>
   </g>
   <g id="matplotlib.axis_2">
    <g id="ytick_1">
     <g id="line2d_11">
      <path d="M 48.31 150.007979 
L 284.46 150.007979 
" clip-path="url(#p7d66e7c3d2)" style="fill: none; stroke-dasharray: 0.8,3.2,0.8,3.2; stroke-dashoffset: 0; stroke: #000000; stroke-width: 0.8"/>
     </g>
     <g id="line2d_12">
      <defs>
       <path id="m2adb883cb5" d="M 0 0 
L -3.5 0 
" style="stroke: #000000; stroke-width: 0.8"/>
      </defs>
      <g>
       <use xlink:href="#m2adb883cb5" x="48.31" y="150.007979" style="stroke: #000000; stroke-width: 0.8"/>
      </g>
     </g>
     <g id="text_6">
      <!-- −0.2 -->
      <g transform="translate(17.027188 153.807198)scale(0.1 -0.1)">
       <defs>
        <path id="DejaVuSans-2212" d="M 678 2272 
L 4684 2272 
L 4684 1741 
L 678 1741 
L 678 2272 
z
" transform="scale(0.015625)"/>
        <path id="DejaVuSans-2e" d="M 684 794 
L 1344 794 
L 1344 0 
L 684 0 
L 684 794 
z
" transform="scale(0.015625)"/>
       </defs>
       <use xlink:href="#DejaVuSans-2212"/>
       <use xlink:href="#DejaVuSans-30" x="83.789062"/>
       <use xlink:href="#DejaVuSans-2e" x="147.412109"/>
       <use xlink:href="#DejaVuSans-32" x="179.199219"/>
      </g>
     </g>
    </g>
    <g id="ytick_2">
     <g id="line2d_13">
      <path d="M 48.31 110.596171 
L 284.46 110.596171 
" clip-path="url(#p7d66e7c3d2)" style="fill: none; stroke-dasharray: 0.8,3.2,0.8,3.2; stroke-dashoffset: 0; stroke: #000000; stroke-width: 0.8"/>
     </g>
     <g id="line2d_14">
      <g>
       <use xlink:href="#m2adb883cb5" x="48.31" y="110.596171" style="stroke: #000000; stroke-width: 0.8"/>
      </g>
     </g>
     <g id="text_7">
      <!-- −0.1 -->
      <g transform="translate(17.027188 114.39539)scale(0.1 -0.1)">
       <use xlink:href="#DejaVuSans-2212"/>
       <use xlink:href="#DejaVuSans-30" x="83.789062"/>
       <use xlink:href="#DejaVuSans-2e" x="147.412109"/>
       <use xlink:href="#DejaVuSans-31" x="179.199219"/>
      </g>
     </g>
    </g>
    <g id="ytick_3">
     <g id="line2d_15">
      <path d="M 48.31 71.184364 
L 284.46 71.184364 
" clip-path="url(#p7d66e7c3d2)" style="fill: none; stroke-dasharray: 0.8,3.2,0.8,3.2; stroke-dashoffset: 0; stroke: #000000; stroke-width: 0.8"/>
     </g>
     <g id="line2d_16">
      <g>
       <use xlink:href="#m2adb883cb5" x="48.31" y="71.184364" style="stroke: #000000; stroke-width: 0.8"/>
      </g>
     </g>
     <g id="text_8">
      <!-- 0.0 -->
      <g transform="translate(25.406875 74.983582)scale(0.1 -0.1)">
       <use xlink:href="#DejaVuSans-30"/>
       <use xlink:href="#DejaVuSans-2e" x="63.623047"/>
       <use xlink:href="#DejaVuSans-30" x="95.410156"/>
      </g>
     </g>
    </g>
   </g>
   <g id="line2d_17">
    <path d="M 59.555238 90.9902 
L 70.800476 89.009611 
L 82.045714 87.227086 
L 93.290952 85.622814 
L 104.53619 84.178969 
L 115.781429 82.879509 
L 127.026667 81.709994 
L 138.271905 80.657431 
L 149.517143 79.710124 
L 160.762381 78.857548 
L 172.007619 78.09023 
L 183.252857 77.399643 
L 194.498095 76.778115 
L 205.743333 76.21874 
L 216.988571 75.715303 
L 228.23381 75.262209 
L 239.479048 74.854424 
L 250.724286 74.487418 
L 261.969524 74.157113 
L 273.214762 73.859838 
" clip-path="url(#p7d66e7c3d2)" style="fill: none; stroke: #0000ff; stroke-width: 1.5; stroke-linecap: square"/>
   </g>
   <g id="line2d_18">
    <path d="M 59.555238 95.675713 
L 70.800476 137.313301 
L 82.045714 162.361075 
L 93.290952 175.989057 
L 104.53619 181.858207 
L 115.781429 182.551636 
L 127.026667 179.883507 
L 138.271905 175.120205 
L 149.517143 169.138639 
L 160.762381 162.539451 
L 172.007619 155.727926 
L 183.252857 148.971759 
L 194.498095 142.442235 
L 205.743333 136.243549 
L 216.988571 130.433632 
L 228.23381 125.038906 
L 239.479048 120.0647 
L 250.724286 115.502572 
L 261.969524 111.335428 
L 273.214762 107.54107 
" clip-path="url(#p7d66e7c3d2)" style="fill: none; stroke-dasharray: 5.55,2.4; stroke-dashoffset: 0; stroke: #0000ff; stroke-width: 1.5"/>
   </g>
   <g id="line2d_19">
    <path d="M 59.555238 71.184366 
L 70.800476 71.184375 
L 82.045714 71.184374 
L 93.290952 71.184372 
L 104.53619 71.184371 
L 115.781429 71.18437 
L 127.026667 71.184369 
L 138.271905 71.184368 
L 149.517143 71.184368 
L 160.762381 71.184367 
L 172.007619 71.184367 
L 183.252857 71.184366 
L 194.498095 71.184366 
L 205.743333 71.184366 
L 216.988571 71.184365 
L 228.23381 71.184365 
L 239.479048 71.184365 
L 250.724286 71.184365 
L 261.969524 71.184365 
L 273.214762 71.184365 
" clip-path="url(#p7d66e7c3d2)" style="fill: none; stroke: #ff0000; stroke-width: 1.5; stroke-linecap: square"/>
   </g>
   <g id="line2d_20">
    <path d="M 59.555238 71.184364 
L 70.800476 71.49294 
L 82.045714 71.714326 
L 93.290952 71.873159 
L 104.53619 71.987113 
L 115.781429 72.068868 
L 127.026667 72.127524 
L 138.271905 72.169605 
L 149.517143 72.199797 
L 160.762381 72.221458 
L 172.007619 72.236998 
L 183.252857 72.248147 
L 194.498095 72.256146 
L 205.743333 72.261885 
L 216.988571 72.266003 
L 228.23381 72.268957 
L 239.479048 72.271076 
L 250.724286 72.272596 
L 261.969524 72.273687 
L 273.214762 72.27447 
" clip-path="url(#p7d66e7c3d2)" style="fill: none; stroke-dasharray: 5.55,2.4; stroke-dashoffset: 0; stroke: #ff0000; stroke-width: 1.5"/>
   </g>
   <g id="patch_3">
    <path d="M 48.31 188.12 
L 48.31 65.616 
" style="fill: none; stroke: #000000; stroke-width: 0.8; stroke-linejoin: miter; stroke-linecap: square"/>
   </g>
   <g id="patch_4">
    <path d="M 284.46 188.12 
L 284.46 65.616 
" style="fill: none; stroke: #000000; stroke-width: 0.8; stroke-linejoin: miter; stroke-linecap: square"/>
   </g>
   <g id="patch_5">
    <path d="M 48.31 188.12 
L 284.46 188.12 
" style="fill: none; stroke: #000000; stroke-width: 0.8; stroke-linejoin: miter; stroke-linecap: square"/>
   </g>
   <g id="patch_6">
    <path d="M 48.31 65.616 
L 284.46 65.616 
" style="fill: none; stroke: #000000; stroke-width: 0.8; stroke-linejoin: miter; stroke-linecap: square"/>
   </g>
   <g id="text_9">
    <!-- DITR -->
    <g transform="translate(152.16125 59.616)scale(0.12 -0.12)">
     <defs>
      <path id="DejaVuSans-44" d="M 1259 4147 
L 1259 519 
L 2022 519 
Q 2988 519 3436 956 
Q 3884 1394 3884 2338 
Q 3884 3275 3436 3711 
Q 2988 4147 2022 4147 
L 1259 4147 
z
M 628 4666 
L 1925 4666 
Q 3281 4666 3915 4102 
Q 4550 3538 4550 2338 
Q 4550 1131 3912 565 
Q 3275 0 1925 0 
L 628 0 
L 628 4666 
z
" transform="scale(0.015625)"/>
      <path id="DejaVuSans-49" d="M 628 4666 
L 1259 4666 
L 1259 0 
L 628 0 
L 628 4666 
z
" transform="scale(0.015625)"/>
      <path id="DejaVuSans-54" d="M -19 4666 
L 3928 4666 
L 3928 4134 
L 2272 4134 
L 2272 0 
L 1638 0 
L 1638 4134 
L -19 4134 
L -19 4666 
z
" transform="scale(0.015625)"/>
      <path id="DejaVuSans-52" d="M 2841 2188 
Q 3044 2119 3236 1894 
Q 3428 1669 3622 1275 
L 4263 0 
L 3584 0 
L 2988 1197 
Q 2756 1666 2539 1819 
Q 2322 1972 1947 1972 
L 1259 1972 
L 1259 0 
L 628 0 
L 628 4666 
L 2053 4666 
Q 2853 4666 3247 4331 
Q 3641 3997 3641 3322 
Q 3641 2881 3436 2590 
Q 3231 2300 2841 2188 
z
M 1259 4147 
L 1259 2491 
L 2053 2491 
Q 2509 2491 2742 2702 
Q 2975 2913 2975 3322 
Q 2975 3731 2742 3939 
Q 2509 4147 2053 4147 
L 1259 4147 
z
" transform="scale(0.015625)"/>
     </defs>
     <use xlink:href="#DejaVuSans-44"/>
     <use xlink:href="#DejaVuSans-49" x="77.001953"/>
     <use xlink:href="#DejaVuSans-54" x="106.494141"/>
     <use xlink:href="#DejaVuSans-52" x="167.578125"/>
    </g>
   </g>
  </g>
  <g id="axes_2">
   <g id="patch_7">
    <path d="M 332.68 188.12 
L 568.83 188.12 
L 568.83 65.616 
L 332.68 65.616 
z
" style="fill: #ffffff"/>
   </g>
   <g id="matplotlib.axis_3">
    <g id="xtick_6">
     <g id="line2d_21">
      <path d="M 332.68 188.12 
L 332.68 65.616 
" clip-path="url(#pb423bd8859)" style="fill: none; stroke-dasharray: 0.8,3.2,0.8,3.2; stroke-dashoffset: 0; stroke: #000000; stroke-width: 0.8"/>
     </g>
     <g id="line2d_22">
      <g>
       <use xlink:href="#mf6f05cda0a" x="332.68" y="188.12" style="stroke: #000000; stroke-width: 0.8"/>
      </g>
     </g>
     <g id="text_10">
      <!-- 0 -->
      <g transform="translate(329.49875 202.718437)scale(0.1 -0.1)">
       <use xlink:href="#DejaVuSans-30"/>
      </g>
     </g>
    </g>
    <g id="xtick_7">
     <g id="line2d_23">
      <path d="M 388.90619 188.12 
L 388.90619 65.616 
" clip-path="url(#pb423bd8859)" style="fill: none; stroke-dasharray: 0.8,3.2,0.8,3.2; stroke-dashoffset: 0; stroke: #000000; stroke-width: 0.8"/>
     </g>
     <g id="line2d_24">
      <g>
       <use xlink:href="#mf6f05cda0a" x="388.90619" y="188.12" style="stroke: #000000; stroke-width: 0.8"/>
      </g>
     </g>
     <g id="text_11">
      <!-- 5 -->
      <g transform="translate(385.72494 202.718437)scale(0.1 -0.1)">
       <use xlink:href="#DejaVuSans-35"/>
      </g>
     </g>
    </g>
    <g id="xtick_8">
     <g id="line2d_25">
      <path d="M 445.132381 188.12 
L 445.132381 65.616 
" clip-path="url(#pb423bd8859)" style="fill: none; stroke-dasharray: 0.8,3.2,0.8,3.2; stroke-dashoffset: 0; stroke: #000000; stroke-width: 0.8"/>
     </g>
     <g id="line2d_26">
      <g>
       <use xlink:href="#mf6f05cda0a" x="445.132381" y="188.12" style="stroke: #000000; stroke-width: 0.8"/>
      </g>
     </g>
     <g id="text_12">
      <!-- 10 -->
      <g transform="translate(438.769881 202.718437)scale(0.1 -0.1)">
       <use xlink:href="#DejaVuSans-31"/>
       <use xlink:href="#DejaVuSans-30" x="63.623047"/>
      </g>
     </g>
    </g>
    <g id="xtick_9">
     <g id="line2d_27">
      <path d="M 501.358571 188.12 
L 501.358571 65.616 
" clip-path="url(#pb423bd8859)" style="fill: none; stroke-dasharray: 0.8,3.2,0.8,3.2; stroke-dashoffset: 0; stroke: #000000; stroke-width: 0.8"/>
     </g>
     <g id="line2d_28">
      <g>
       <use xlink:href="#mf6f05cda0a" x="501.358571" y="188.12" style="stroke: #000000; stroke-width: 0.8"/>
      </g>
     </g>
     <g id="text_13">
      <!-- 15 -->
      <g transform="translate(494.996071 202.718437)scale(0.1 -0.1)">
       <use xlink:href="#DejaVuSans-31"/>
       <use xlink:href="#DejaVuSans-35" x="63.623047"/>
      </g>
     </g>
    </g>
    <g id="xtick_10">
     <g id="line2d_29">
      <path d="M 557.584762 188.12 
L 557.584762 65.616 
" clip-path="url(#pb423bd8859)" style="fill: none; stroke-dasharray: 0.8,3.2,0.8,3.2; stroke-dashoffset: 0; stroke: #000000; stroke-width: 0.8"/>
     </g>
     <g id="line2d_30">
      <g>
       <use xlink:href="#mf6f05cda0a" x="557.584762" y="188.12" style="stroke: #000000; stroke-width: 0.8"/>
      </g>
     </g>
     <g id="text_14">
      <!-- 20 -->
      <g transform="translate(551.222262 202.718437)scale(0.1 -0.1)">
       <use xlink:href="#DejaVuSans-32"/>
       <use xlink:href="#DejaVuSans-30" x="63.623047"/>
      </g>
     </g>
    </g>
   </g>
   <g id="matplotlib.axis_4">
    <g id="ytick_4">
     <g id="line2d_31">
      <path d="M 332.68 187.558757 
L 568.83 187.558757 
" clip-path="url(#pb423bd8859)" style="fill: none; stroke-dasharray: 0.8,3.2,0.8,3.2; stroke-dashoffset: 0; stroke: #000000; stroke-width: 0.8"/>
     </g>
     <g id="line2d_32">
      <g>
       <use xlink:href="#m2adb883cb5" x="332.68" y="187.558757" style="stroke: #000000; stroke-width: 0.8"/>
      </g>
     </g>
     <g id="text_15">
      <!-- −0.4 -->
      <g transform="translate(301.397188 191.357976)scale(0.1 -0.1)">
       <defs>
        <path id="DejaVuSans-34" d="M 2419 4116 
L 825 1625 
L 2419 1625 
L 2419 4116 
z
M 2253 4666 
L 3047 4666 
L 3047 1625 
L 3713 1625 
L 3713 1100 
L 3047 1100 
L 3047 0 
L 2419 0 
L 2419 1100 
L 313 1100 
L 313 1709 
L 2253 4666 
z
" transform="scale(0.015625)"/>
       </defs>
       <use xlink:href="#DejaVuSans-2212"/>
       <use xlink:href="#DejaVuSans-30" x="83.789062"/>
       <use xlink:href="#DejaVuSans-2e" x="147.412109"/>
       <use xlink:href="#DejaVuSans-34" x="179.199219"/>
      </g>
     </g>
    </g>
    <g id="ytick_5">
     <g id="line2d_33">
      <path d="M 332.68 157.078209 
L 568.83 157.078209 
" clip-path="url(#pb423bd8859)" style="fill: none; stroke-dasharray: 0.8,3.2,0.8,3.2; stroke-dashoffset: 0; stroke: #000000; stroke-width: 0.8"/>
     </g>
     <g id="line2d_34">
      <g>
       <use xlink:href="#m2adb883cb5" x="332.68" y="157.078209" style="stroke: #000000; stroke-width: 0.8"/>
      </g>
     </g>
     <g id="text_16">
      <!-- −0.2 -->
      <g transform="translate(301.397188 160.877428)scale(0.1 -0.1)">
       <use xlink:href="#DejaVuSans-2212"/>
       <use xlink:href="#DejaVuSans-30" x="83.789062"/>
       <use xlink:href="#DejaVuSans-2e" x="147.412109"/>
       <use xlink:href="#DejaVuSans-32" x="179.199219"/>
      </g>
     </g>
    </g>
    <g id="ytick_6">
     <g id="line2d_35">
      <path d="M 332.68 126.597661 
L 568.83 126.597661 
" clip-path="url(#pb423bd8859)" style="fill: none; stroke-dasharray: 0.8,3.2,0.8,3.2; stroke-dashoffset: 0; stroke: #000000; stroke-width: 0.8"/>
     </g>
     <g id="line2d_36">
      <g>
       <use xlink:href="#m2adb883cb5" x="332.68" y="126.597661" style="stroke: #000000; stroke-width: 0.8"/>
      </g>
     </g>
     <g id="text_17">
      <!-- 0.0 -->
      <g transform="translate(309.776875 130.39688)scale(0.1 -0.1)">
       <use xlink:href="#DejaVuSans-30"/>
       <use xlink:href="#DejaVuSans-2e" x="63.623047"/>
       <use xlink:href="#DejaVuSans-30" x="95.410156"/>
      </g>
     </g>
    </g>
    <g id="ytick_7">
     <g id="line2d_37">
      <path d="M 332.68 96.117113 
L 568.83 96.117113 
" clip-path="url(#pb423bd8859)" style="fill: none; stroke-dasharray: 0.8,3.2,0.8,3.2; stroke-dashoffset: 0; stroke: #000000; stroke-width: 0.8"/>
     </g>
     <g id="line2d_38">
      <g>
       <use xlink:href="#m2adb883cb5" x="332.68" y="96.117113" style="stroke: #000000; stroke-width: 0.8"/>
      </g>
     </g>
     <g id="text_18">
      <!-- 0.2 -->
      <g transform="translate(309.776875 99.916332)scale(0.1 -0.1)">
       <use xlink:href="#DejaVuSans-30"/>
       <use xlink:href="#DejaVuSans-2e" x="63.623047"/>
       <use xlink:href="#DejaVuSans-32" x="95.410156"/>
      </g>
     </g>
    </g>
    <g id="ytick_8">
     <g id="line2d_39">
      <path d="M 332.68 65.636565 
L 568.83 65.636565 
" clip-path="url(#pb423bd8859)" style="fill: none; stroke-dasharray: 0.8,3.2,0.8,3.2; stroke-dashoffset: 0; stroke: #000000; stroke-width: 0.8"/>
     </g>
     <g id="line2d_40">
      <g>
       <use xlink:href="#m2adb883cb5" x="332.68" y="65.636565" style="stroke: #000000; stroke-width: 0.8"/>
      </g>
     </g>
     <g id="text_19">
      <!-- 0.4 -->
      <g transform="translate(309.776875 69.435784)scale(0.1 -0.1)">
       <use xlink:href="#DejaVuSans-30"/>
       <use xlink:href="#DejaVuSans-2e" x="63.623047"/>
       <use xlink:href="#DejaVuSans-34" x="95.410156"/>
      </g>
     </g>
    </g>
   </g>
   <g id="line2d_41">
    <path d="M 343.925238 182.551636 
L 355.170476 146.016436 
L 366.415714 134.158001 
L 377.660952 130.220943 
L 388.90619 128.835558 
L 400.151429 128.28009 
L 411.396667 128.001678 
L 422.641905 127.822074 
L 433.887143 127.683168 
L 445.132381 127.565437 
L 456.377619 127.461813 
L 467.622857 127.369299 
L 478.868095 127.286276 
L 490.113333 127.211632 
L 501.358571 127.144478 
L 512.60381 127.084046 
L 523.849048 127.02966 
L 535.094286 126.980714 
L 546.339524 126.936662 
L 557.584762 126.897016 
" clip-path="url(#pb423bd8859)" style="fill: none; stroke: #0000ff; stroke-width: 1.5; stroke-linecap: square"/>
   </g>
   <g id="line2d_42">
    <path d="M 343.925238 176.604139 
L 355.170476 129.912836 
L 366.415714 117.183341 
L 377.660952 119.448463 
L 388.90619 126.988084 
L 400.151429 135.170182 
L 411.396667 142.063491 
L 422.641905 147.097026 
L 433.887143 150.328695 
L 445.132381 152.061728 
L 456.377619 152.655088 
L 467.622857 152.438788 
L 478.868095 151.683493 
L 490.113333 150.596403 
L 501.358571 149.328408 
L 512.60381 147.984852 
L 523.849048 146.636307 
L 535.094286 145.32786 
L 546.339524 144.086537 
L 557.584762 142.926921 
" clip-path="url(#pb423bd8859)" style="fill: none; stroke-dasharray: 5.55,2.4; stroke-dashoffset: 0; stroke: #0000ff; stroke-width: 1.5"/>
   </g>
   <g id="line2d_43">
    <path d="M 343.925238 75.962222 
L 355.170476 115.616859 
L 366.415714 127.582263 
L 377.660952 130.779957 
L 388.90619 131.257626 
L 400.151429 130.940394 
L 411.396667 130.434325 
L 422.641905 129.924377 
L 433.887143 129.461879 
L 445.132381 129.05646 
L 456.377619 128.705342 
L 467.622857 128.402593 
L 478.868095 128.141977 
L 490.113333 127.917766 
L 501.358571 127.724919 
L 512.60381 127.559062 
L 523.849048 127.416423 
L 535.094286 127.293752 
L 546.339524 127.188255 
L 557.584762 127.097527 
" clip-path="url(#pb423bd8859)" style="fill: none; stroke: #ff0000; stroke-width: 1.5; stroke-linecap: square"/>
   </g>
   <g id="line2d_44">
    <path d="M 343.925238 71.184364 
L 355.170476 135.481869 
L 366.415714 165.520289 
L 377.660952 176.896229 
L 388.90619 178.591685 
L 400.151429 175.658891 
L 411.396667 170.850653 
L 422.641905 165.599028 
L 433.887143 160.59513 
L 445.132381 156.127348 
L 456.377619 152.274944 
L 467.622857 149.016232 
L 478.868095 146.287113 
L 490.113333 144.011309 
L 501.358571 142.114861 
L 512.60381 140.53216 
L 523.849048 139.207655 
L 535.094286 138.095497 
L 546.339524 137.158355 
L 557.584762 136.366008 
" clip-path="url(#pb423bd8859)" style="fill: none; stroke-dasharray: 5.55,2.4; stroke-dashoffset: 0; stroke: #ff0000; stroke-width: 1.5"/>
   </g>
   <g id="patch_8">
    <path d="M 332.68 188.12 
L 332.68 65.616 
" style="fill: none; stroke: #000000; stroke-width: 0.8; stroke-linejoin: miter; stroke-linecap: square"/>
   </g>
   <g id="patch_9">
    <path d="M 568.83 188.12 
L 568.83 65.616 
" style="fill: none; stroke: #000000; stroke-width: 0.8; stroke-linejoin: miter; stroke-linecap: square"/>
   </g>
   <g id="patch_10">
    <path d="M 332.68 188.12 
L 568.83 188.12 
" style="fill: none; stroke: #000000; stroke-width: 0.8; stroke-linejoin: miter; stroke-linecap: square"/>
   </g>
   <g id="patch_11">
    <path d="M 332.68 65.616 
L 568.83 65.616 
" style="fill: none; stroke: #000000; stroke-width: 0.8; stroke-linejoin: miter; stroke-linecap: square"/>
   </g>
   <g id="text_20">
    <!-- CITR -->
    <g transform="translate(436.961563 59.616)scale(0.12 -0.12)">
     <defs>
      <path id="DejaVuSans-43" d="M 4122 4306 
L 4122 3641 
Q 3803 3938 3442 4084 
Q 3081 4231 2675 4231 
Q 1875 4231 1450 3742 
Q 1025 3253 1025 2328 
Q 1025 1406 1450 917 
Q 1875 428 2675 428 
Q 3081 428 3442 575 
Q 3803 722 4122 1019 
L 4122 359 
Q 3791 134 3420 21 
Q 3050 -91 2638 -91 
Q 1578 -91 968 557 
Q 359 1206 359 2328 
Q 359 3453 968 4101 
Q 1578 4750 2638 4750 
Q 3056 4750 3426 4639 
Q 3797 4528 4122 4306 
z
" transform="scale(0.015625)"/>
     </defs>
     <use xlink:href="#DejaVuSans-43"/>
     <use xlink:href="#DejaVuSans-49" x="69.824219"/>
     <use xlink:href="#DejaVuSans-54" x="99.316406"/>
     <use xlink:href="#DejaVuSans-52" x="160.400391"/>
    </g>
   </g>
  </g>
  <g id="axes_3">
   <g id="patch_12">
    <path d="M 617.05 188.12 
L 853.2 188.12 
L 853.2 65.616 
L 617.05 65.616 
z
" style="fill: #ffffff"/>
   </g>
   <g id="matplotlib.axis_5">
    <g id="xtick_11">
     <g id="line2d_45">
      <path d="M 617.05 188.12 
L 617.05 65.616 
" clip-path="url(#pd158224bc0)" style="fill: none; stroke-dasharray: 0.8,3.2,0.8,3.2; stroke-dashoffset: 0; stroke: #000000; stroke-width: 0.8"/>
     </g>
     <g id="line2d_46">
      <g>
       <use xlink:href="#mf6f05cda0a" x="617.05" y="188.12" style="stroke: #000000; stroke-width: 0.8"/>
      </g>
     </g>
     <g id="text_21">
      <!-- 0 -->
      <g transform="translate(613.86875 202.718437)scale(0.1 -0.1)">
       <use xlink:href="#DejaVuSans-30"/>
      </g>
     </g>
    </g>
    <g id="xtick_12">
     <g id="line2d_47">
      <path d="M 673.27619 188.12 
L 673.27619 65.616 
" clip-path="url(#pd158224bc0)" style="fill: none; stroke-dasharray: 0.8,3.2,0.8,3.2; stroke-dashoffset: 0; stroke: #000000; stroke-width: 0.8"/>
     </g>
     <g id="line2d_48">
      <g>
       <use xlink:href="#mf6f05cda0a" x="673.27619" y="188.12" style="stroke: #000000; stroke-width: 0.8"/>
      </g>
     </g>
     <g id="text_22">
      <!-- 5 -->
      <g transform="translate(670.09494 202.718437)scale(0.1 -0.1)">
       <use xlink:href="#DejaVuSans-35"/>
      </g>
     </g>
    </g>
    <g id="xtick_13">
     <g id="line2d_49">
      <path d="M 729.502381 188.12 
L 729.502381 65.616 
" clip-path="url(#pd158224bc0)" style="fill: none; stroke-dasharray: 0.8,3.2,0.8,3.2; stroke-dashoffset: 0; stroke: #000000; stroke-width: 0.8"/>
     </g>
     <g id="line2d_50">
      <g>
       <use xlink:href="#mf6f05cda0a" x="729.502381" y="188.12" style="stroke: #000000; stroke-width: 0.8"/>
      </g>
     </g>
     <g id="text_23">
      <!-- 10 -->
      <g transform="translate(723.139881 202.718437)scale(0.1 -0.1)">
       <use xlink:href="#DejaVuSans-31"/>
       <use xlink:href="#DejaVuSans-30" x="63.623047"/>
      </g>
     </g>
    </g>
    <g id="xtick_14">
     <g id="line2d_51">
      <path d="M 785.728571 188.12 
L 785.728571 65.616 
" clip-path="url(#pd158224bc0)" style="fill: none; stroke-dasharray: 0.8,3.2,0.8,3.2; stroke-dashoffset: 0; stroke: #000000; stroke-width: 0.8"/>
     </g>
     <g id="line2d_52">
      <g>
       <use xlink:href="#mf6f05cda0a" x="785.728571" y="188.12" style="stroke: #000000; stroke-width: 0.8"/>
      </g>
     </g>
     <g id="text_24">
      <!-- 15 -->
      <g transform="translate(779.366071 202.718437)scale(0.1 -0.1)">
       <use xlink:href="#DejaVuSans-31"/>
       <use xlink:href="#DejaVuSans-35" x="63.623047"/>
      </g>
     </g>
    </g>
    <g id="xtick_15">
     <g id="line2d_53">
      <path d="M 841.954762 188.12 
L 841.954762 65.616 
" clip-path="url(#pd158224bc0)" style="fill: none; stroke-dasharray: 0.8,3.2,0.8,3.2; stroke-dashoffset: 0; stroke: #000000; stroke-width: 0.8"/>
     </g>
     <g id="line2d_54">
      <g>
       <use xlink:href="#mf6f05cda0a" x="841.954762" y="188.12" style="stroke: #000000; stroke-width: 0.8"/>
      </g>
     </g>
     <g id="text_25">
      <!-- 20 -->
      <g transform="translate(835.592262 202.718437)scale(0.1 -0.1)">
       <use xlink:href="#DejaVuSans-32"/>
       <use xlink:href="#DejaVuSans-30" x="63.623047"/>
      </g>
     </g>
    </g>
   </g>
   <g id="matplotlib.axis_6">
    <g id="ytick_9">
     <g id="line2d_55">
      <path d="M 617.05 163.881756 
L 853.2 163.881756 
" clip-path="url(#pd158224bc0)" style="fill: none; stroke-dasharray: 0.8,3.2,0.8,3.2; stroke-dashoffset: 0; stroke: #000000; stroke-width: 0.8"/>
     </g>
     <g id="line2d_56">
      <g>
       <use xlink:href="#m2adb883cb5" x="617.05" y="163.881756" style="stroke: #000000; stroke-width: 0.8"/>
      </g>
     </g>
     <g id="text_26">
      <!-- −0.5 -->
      <g transform="translate(585.767187 167.680975)scale(0.1 -0.1)">
       <use xlink:href="#DejaVuSans-2212"/>
       <use xlink:href="#DejaVuSans-30" x="83.789062"/>
       <use xlink:href="#DejaVuSans-2e" x="147.412109"/>
       <use xlink:href="#DejaVuSans-35" x="179.199219"/>
      </g>
     </g>
    </g>
    <g id="ytick_10">
     <g id="line2d_57">
      <path d="M 617.05 132.062466 
L 853.2 132.062466 
" clip-path="url(#pd158224bc0)" style="fill: none; stroke-dasharray: 0.8,3.2,0.8,3.2; stroke-dashoffset: 0; stroke: #000000; stroke-width: 0.8"/>
     </g>
     <g id="line2d_58">
      <g>
       <use xlink:href="#m2adb883cb5" x="617.05" y="132.062466" style="stroke: #000000; stroke-width: 0.8"/>
      </g>
     </g>
     <g id="text_27">
      <!-- 0.0 -->
      <g transform="translate(594.146875 135.861685)scale(0.1 -0.1)">
       <use xlink:href="#DejaVuSans-30"/>
       <use xlink:href="#DejaVuSans-2e" x="63.623047"/>
       <use xlink:href="#DejaVuSans-30" x="95.410156"/>
      </g>
     </g>
    </g>
    <g id="ytick_11">
     <g id="line2d_59">
      <path d="M 617.05 100.243176 
L 853.2 100.243176 
" clip-path="url(#pd158224bc0)" style="fill: none; stroke-dasharray: 0.8,3.2,0.8,3.2; stroke-dashoffset: 0; stroke: #000000; stroke-width: 0.8"/>
     </g>
     <g id="line2d_60">
      <g>
       <use xlink:href="#m2adb883cb5" x="617.05" y="100.243176" style="stroke: #000000; stroke-width: 0.8"/>
      </g>
     </g>
     <g id="text_28">
      <!-- 0.5 -->
      <g transform="translate(594.146875 104.042395)scale(0.1 -0.1)">
       <use xlink:href="#DejaVuSans-30"/>
       <use xlink:href="#DejaVuSans-2e" x="63.623047"/>
       <use xlink:href="#DejaVuSans-35" x="95.410156"/>
      </g>
     </g>
    </g>
    <g id="ytick_12">
     <g id="line2d_61">
      <path d="M 617.05 68.423886 
L 853.2 68.423886 
" clip-path="url(#pd158224bc0)" style="fill: none; stroke-dasharray: 0.8,3.2,0.8,3.2; stroke-dashoffset: 0; stroke: #000000; stroke-width: 0.8"/>
     </g>
     <g id="line2d_62">
      <g>
       <use xlink:href="#m2adb883cb5" x="617.05" y="68.423886" style="stroke: #000000; stroke-width: 0.8"/>
      </g>
     </g>
     <g id="text_29">
      <!-- 1.0 -->
      <g transform="translate(594.146875 72.223105)scale(0.1 -0.1)">
       <use xlink:href="#DejaVuSans-31"/>
       <use xlink:href="#DejaVuSans-2e" x="63.623047"/>
       <use xlink:href="#DejaVuSans-30" x="95.410156"/>
      </g>
     </g>
    </g>
   </g>
   <g id="line2d_63">
    <path d="M 628.295238 171.008603 
L 639.540476 153.209456 
L 650.785714 143.264992 
L 662.030952 137.735729 
L 673.27619 134.68565 
L 684.521429 133.025271 
L 695.766667 132.141731 
L 707.011905 131.690491 
L 718.257143 131.478055 
L 729.502381 131.395925 
L 740.747619 131.383423 
L 751.992857 131.406753 
L 763.238095 131.447225 
L 774.483333 131.494615 
L 785.728571 131.543441 
L 796.97381 131.590862 
L 808.219048 131.635498 
L 819.464286 131.676774 
L 830.709524 131.714543 
L 841.954762 131.748885 
" clip-path="url(#pd158224bc0)" style="fill: none; stroke: #0000ff; stroke-width: 1.5; stroke-linecap: square"/>
   </g>
   <g id="line2d_64">
    <path d="M 628.295238 182.551636 
L 639.540476 167.944 
L 650.785714 157.233201 
L 662.030952 149.467007 
L 673.27619 143.913354 
L 684.521429 140.011372 
L 695.766667 137.332995 
L 707.011905 135.552914 
L 718.257143 134.425105 
L 729.502381 133.76454 
L 740.747619 133.432946 
L 751.992857 133.327765 
L 763.238095 133.373599 
L 774.483333 133.515609 
L 785.728571 133.714435 
L 796.97381 133.942295 
L 808.219048 134.180008 
L 819.464286 134.414721 
L 830.709524 134.6382 
L 841.954762 134.845526 
" clip-path="url(#pd158224bc0)" style="fill: none; stroke-dasharray: 5.55,2.4; stroke-dashoffset: 0; stroke: #0000ff; stroke-width: 1.5"/>
   </g>
   <g id="line2d_65">
    <path d="M 628.295238 92.058602 
L 639.540476 110.96806 
L 650.785714 121.415646 
L 662.030952 127.126346 
L 673.27619 130.193804 
L 684.521429 131.79359 
L 695.766667 132.584769 
L 707.011905 132.93597 
L 718.257143 133.05262 
L 729.502381 133.048548 
L 740.747619 132.986262 
L 751.992857 132.899595 
L 763.238095 132.806422 
L 774.483333 132.715797 
L 785.728571 132.631948 
L 796.97381 132.556511 
L 808.219048 132.48976 
L 819.464286 132.431299 
L 830.709524 132.380428 
L 841.954762 132.336345 
" clip-path="url(#pd158224bc0)" style="fill: none; stroke: #ff0000; stroke-width: 1.5; stroke-linecap: square"/>
   </g>
   <g id="line2d_66">
    <path d="M 628.295238 71.184364 
L 639.540476 83.100735 
L 650.785714 93.388034 
L 662.030952 102.155046 
L 673.27619 109.539473 
L 684.521429 115.691421 
L 695.766667 120.762334 
L 707.011905 124.897867 
L 718.257143 128.233586 
L 729.502381 130.892651 
L 740.747619 132.984873 
L 751.992857 134.606678 
L 763.238095 135.841664 
L 774.483333 136.761508 
L 785.728571 137.427064 
L 796.97381 137.889531 
L 808.219048 138.191616 
L 819.464286 138.36866 
L 830.709524 138.449662 
L 841.954762 138.458232 
" clip-path="url(#pd158224bc0)" style="fill: none; stroke-dasharray: 5.55,2.4; stroke-dashoffset: 0; stroke: #ff0000; stroke-width: 1.5"/>
   </g>
   <g id="patch_13">
    <path d="M 617.05 188.12 
L 617.05 65.616 
" style="fill: none; stroke: #000000; stroke-width: 0.8; stroke-linejoin: miter; stroke-linecap: square"/>
   </g>
   <g id="patch_14">
    <path d="M 853.2 188.12 
L 853.2 65.616 
" style="fill: none; stroke: #000000; stroke-width: 0.8; stroke-linejoin: miter; stroke-linecap: square"/>
   </g>
   <g id="patch_15">
    <path d="M 617.05 188.12 
L 853.2 188.12 
" style="fill: none; stroke: #000000; stroke-width: 0.8; stroke-linejoin: miter; stroke-linecap: square"/>
   </g>
   <g id="patch_16">
    <path d="M 617.05 65.616 
L 853.2 65.616 
" style="fill: none; stroke: #000000; stroke-width: 0.8; stroke-linejoin: miter; stroke-linecap: square"/>
   </g>
   <g id="text_30">
    <!-- PEG -->
    <g transform="translate(723.066875 59.616)scale(0.12 -0.12)">
     <defs>
      <path id="DejaVuSans-50" d="M 1259 4147 
L 1259 2394 
L 2053 2394 
Q 2494 2394 2734 2622 
Q 2975 2850 2975 3272 
Q 2975 3691 2734 3919 
Q 2494 4147 2053 4147 
L 1259 4147 
z
M 628 4666 
L 2053 4666 
Q 2838 4666 3239 4311 
Q 3641 3956 3641 3272 
Q 3641 2581 3239 2228 
Q 2838 1875 2053 1875 
L 1259 1875 
L 1259 0 
L 628 0 
L 628 4666 
z
" transform="scale(0.015625)"/>
      <path id="DejaVuSans-45" d="M 628 4666 
L 3578 4666 
L 3578 4134 
L 1259 4134 
L 1259 2753 
L 3481 2753 
L 3481 2222 
L 1259 2222 
L 1259 531 
L 3634 531 
L 3634 0 
L 628 0 
L 628 4666 
z
" transform="scale(0.015625)"/>
      <path id="DejaVuSans-47" d="M 3809 666 
L 3809 1919 
L 2778 1919 
L 2778 2438 
L 4434 2438 
L 4434 434 
Q 4069 175 3628 42 
Q 3188 -91 2688 -91 
Q 1594 -91 976 548 
Q 359 1188 359 2328 
Q 359 3472 976 4111 
Q 1594 4750 2688 4750 
Q 3144 4750 3555 4637 
Q 3966 4525 4313 4306 
L 4313 3634 
Q 3963 3931 3569 4081 
Q 3175 4231 2741 4231 
Q 1884 4231 1454 3753 
Q 1025 3275 1025 2328 
Q 1025 1384 1454 906 
Q 1884 428 2741 428 
Q 3075 428 3337 486 
Q 3600 544 3809 666 
z
" transform="scale(0.015625)"/>
     </defs>
     <use xlink:href="#DejaVuSans-50"/>
     <use xlink:href="#DejaVuSans-45" x="60.302734"/>
     <use xlink:href="#DejaVuSans-47" x="123.486328"/>
    </g>
   </g>
  </g>
  <g id="text_31">
   <!-- Output Gap - Response to Shocks  -->
   <g transform="translate(316.62375 13.438125)scale(0.12 -0.12)">
    <defs>
     <path id="DejaVuSans-Bold-4f" d="M 2719 3878 
Q 2169 3878 1866 3472 
Q 1563 3066 1563 2328 
Q 1563 1594 1866 1187 
Q 2169 781 2719 781 
Q 3272 781 3575 1187 
Q 3878 1594 3878 2328 
Q 3878 3066 3575 3472 
Q 3272 3878 2719 3878 
z
M 2719 4750 
Q 3844 4750 4481 4106 
Q 5119 3463 5119 2328 
Q 5119 1197 4481 553 
Q 3844 -91 2719 -91 
Q 1597 -91 958 553 
Q 319 1197 319 2328 
Q 319 3463 958 4106 
Q 1597 4750 2719 4750 
z
" transform="scale(0.015625)"/>
     <path id="DejaVuSans-Bold-75" d="M 500 1363 
L 500 3500 
L 1625 3500 
L 1625 3150 
Q 1625 2866 1622 2436 
Q 1619 2006 1619 1863 
Q 1619 1441 1641 1255 
Q 1663 1069 1716 984 
Q 1784 875 1895 815 
Q 2006 756 2150 756 
Q 2500 756 2700 1025 
Q 2900 1294 2900 1772 
L 2900 3500 
L 4019 3500 
L 4019 0 
L 2900 0 
L 2900 506 
Q 2647 200 2364 54 
Q 2081 -91 1741 -91 
Q 1134 -91 817 281 
Q 500 653 500 1363 
z
" transform="scale(0.015625)"/>
     <path id="DejaVuSans-Bold-74" d="M 1759 4494 
L 1759 3500 
L 2913 3500 
L 2913 2700 
L 1759 2700 
L 1759 1216 
Q 1759 972 1856 886 
Q 1953 800 2241 800 
L 2816 800 
L 2816 0 
L 1856 0 
Q 1194 0 917 276 
Q 641 553 641 1216 
L 641 2700 
L 84 2700 
L 84 3500 
L 641 3500 
L 641 4494 
L 1759 4494 
z
" transform="scale(0.015625)"/>
     <path id="DejaVuSans-Bold-70" d="M 1656 506 
L 1656 -1331 
L 538 -1331 
L 538 3500 
L 1656 3500 
L 1656 2988 
Q 1888 3294 2169 3439 
Q 2450 3584 2816 3584 
Q 3463 3584 3878 3070 
Q 4294 2556 4294 1747 
Q 4294 938 3878 423 
Q 3463 -91 2816 -91 
Q 2450 -91 2169 54 
Q 1888 200 1656 506 
z
M 2400 2772 
Q 2041 2772 1848 2508 
Q 1656 2244 1656 1747 
Q 1656 1250 1848 986 
Q 2041 722 2400 722 
Q 2759 722 2948 984 
Q 3138 1247 3138 1747 
Q 3138 2247 2948 2509 
Q 2759 2772 2400 2772 
z
" transform="scale(0.015625)"/>
     <path id="DejaVuSans-Bold-20" transform="scale(0.015625)"/>
     <path id="DejaVuSans-Bold-47" d="M 4781 347 
Q 4331 128 3847 18 
Q 3363 -91 2847 -91 
Q 1681 -91 1000 561 
Q 319 1213 319 2328 
Q 319 3456 1012 4103 
Q 1706 4750 2913 4750 
Q 3378 4750 3804 4662 
Q 4231 4575 4609 4403 
L 4609 3438 
Q 4219 3659 3833 3768 
Q 3447 3878 3059 3878 
Q 2341 3878 1952 3476 
Q 1563 3075 1563 2328 
Q 1563 1588 1938 1184 
Q 2313 781 3003 781 
Q 3191 781 3352 804 
Q 3513 828 3641 878 
L 3641 1784 
L 2906 1784 
L 2906 2591 
L 4781 2591 
L 4781 347 
z
" transform="scale(0.015625)"/>
     <path id="DejaVuSans-Bold-61" d="M 2106 1575 
Q 1756 1575 1579 1456 
Q 1403 1338 1403 1106 
Q 1403 894 1545 773 
Q 1688 653 1941 653 
Q 2256 653 2472 879 
Q 2688 1106 2688 1447 
L 2688 1575 
L 2106 1575 
z
M 3816 1997 
L 3816 0 
L 2688 0 
L 2688 519 
Q 2463 200 2181 54 
Q 1900 -91 1497 -91 
Q 953 -91 614 226 
Q 275 544 275 1050 
Q 275 1666 698 1953 
Q 1122 2241 2028 2241 
L 2688 2241 
L 2688 2328 
Q 2688 2594 2478 2717 
Q 2269 2841 1825 2841 
Q 1466 2841 1156 2769 
Q 847 2697 581 2553 
L 581 3406 
Q 941 3494 1303 3539 
Q 1666 3584 2028 3584 
Q 2975 3584 3395 3211 
Q 3816 2838 3816 1997 
z
" transform="scale(0.015625)"/>
     <path id="DejaVuSans-Bold-2d" d="M 347 2297 
L 2309 2297 
L 2309 1388 
L 347 1388 
L 347 2297 
z
" transform="scale(0.015625)"/>
     <path id="DejaVuSans-Bold-52" d="M 2297 2597 
Q 2675 2597 2839 2737 
Q 3003 2878 3003 3200 
Q 3003 3519 2839 3656 
Q 2675 3794 2297 3794 
L 1791 3794 
L 1791 2597 
L 2297 2597 
z
M 1791 1766 
L 1791 0 
L 588 0 
L 588 4666 
L 2425 4666 
Q 3347 4666 3776 4356 
Q 4206 4047 4206 3378 
Q 4206 2916 3982 2619 
Q 3759 2322 3309 2181 
Q 3556 2125 3751 1926 
Q 3947 1728 4147 1325 
L 4800 0 
L 3519 0 
L 2950 1159 
Q 2778 1509 2601 1637 
Q 2425 1766 2131 1766 
L 1791 1766 
z
" transform="scale(0.015625)"/>
     <path id="DejaVuSans-Bold-65" d="M 4031 1759 
L 4031 1441 
L 1416 1441 
Q 1456 1047 1700 850 
Q 1944 653 2381 653 
Q 2734 653 3104 758 
Q 3475 863 3866 1075 
L 3866 213 
Q 3469 63 3072 -14 
Q 2675 -91 2278 -91 
Q 1328 -91 801 392 
Q 275 875 275 1747 
Q 275 2603 792 3093 
Q 1309 3584 2216 3584 
Q 3041 3584 3536 3087 
Q 4031 2591 4031 1759 
z
M 2881 2131 
Q 2881 2450 2695 2645 
Q 2509 2841 2209 2841 
Q 1884 2841 1681 2658 
Q 1478 2475 1428 2131 
L 2881 2131 
z
" transform="scale(0.015625)"/>
     <path id="DejaVuSans-Bold-73" d="M 3272 3391 
L 3272 2541 
Q 2913 2691 2578 2766 
Q 2244 2841 1947 2841 
Q 1628 2841 1473 2761 
Q 1319 2681 1319 2516 
Q 1319 2381 1436 2309 
Q 1553 2238 1856 2203 
L 2053 2175 
Q 2913 2066 3209 1816 
Q 3506 1566 3506 1031 
Q 3506 472 3093 190 
Q 2681 -91 1863 -91 
Q 1516 -91 1145 -36 
Q 775 19 384 128 
L 384 978 
Q 719 816 1070 734 
Q 1422 653 1784 653 
Q 2113 653 2278 743 
Q 2444 834 2444 1013 
Q 2444 1163 2330 1236 
Q 2216 1309 1875 1350 
L 1678 1375 
Q 931 1469 631 1722 
Q 331 1975 331 2491 
Q 331 3047 712 3315 
Q 1094 3584 1881 3584 
Q 2191 3584 2531 3537 
Q 2872 3491 3272 3391 
z
" transform="scale(0.015625)"/>
     <path id="DejaVuSans-Bold-6f" d="M 2203 2784 
Q 1831 2784 1636 2517 
Q 1441 2250 1441 1747 
Q 1441 1244 1636 976 
Q 1831 709 2203 709 
Q 2569 709 2762 976 
Q 2956 1244 2956 1747 
Q 2956 2250 2762 2517 
Q 2569 2784 2203 2784 
z
M 2203 3584 
Q 3106 3584 3614 3096 
Q 4122 2609 4122 1747 
Q 4122 884 3614 396 
Q 3106 -91 2203 -91 
Q 1297 -91 786 396 
Q 275 884 275 1747 
Q 275 2609 786 3096 
Q 1297 3584 2203 3584 
z
" transform="scale(0.015625)"/>
     <path id="DejaVuSans-Bold-6e" d="M 4056 2131 
L 4056 0 
L 2931 0 
L 2931 347 
L 2931 1631 
Q 2931 2084 2911 2256 
Q 2891 2428 2841 2509 
Q 2775 2619 2662 2680 
Q 2550 2741 2406 2741 
Q 2056 2741 1856 2470 
Q 1656 2200 1656 1722 
L 1656 0 
L 538 0 
L 538 3500 
L 1656 3500 
L 1656 2988 
Q 1909 3294 2193 3439 
Q 2478 3584 2822 3584 
Q 3428 3584 3742 3212 
Q 4056 2841 4056 2131 
z
" transform="scale(0.015625)"/>
     <path id="DejaVuSans-Bold-53" d="M 3834 4519 
L 3834 3531 
Q 3450 3703 3084 3790 
Q 2719 3878 2394 3878 
Q 1963 3878 1756 3759 
Q 1550 3641 1550 3391 
Q 1550 3203 1689 3098 
Q 1828 2994 2194 2919 
L 2706 2816 
Q 3484 2659 3812 2340 
Q 4141 2022 4141 1434 
Q 4141 663 3683 286 
Q 3225 -91 2284 -91 
Q 1841 -91 1394 -6 
Q 947 78 500 244 
L 500 1259 
Q 947 1022 1364 901 
Q 1781 781 2169 781 
Q 2563 781 2772 912 
Q 2981 1044 2981 1288 
Q 2981 1506 2839 1625 
Q 2697 1744 2272 1838 
L 1806 1941 
Q 1106 2091 782 2419 
Q 459 2747 459 3303 
Q 459 4000 909 4375 
Q 1359 4750 2203 4750 
Q 2588 4750 2994 4692 
Q 3400 4634 3834 4519 
z
" transform="scale(0.015625)"/>
     <path id="DejaVuSans-Bold-68" d="M 4056 2131 
L 4056 0 
L 2931 0 
L 2931 347 
L 2931 1625 
Q 2931 2084 2911 2256 
Q 2891 2428 2841 2509 
Q 2775 2619 2662 2680 
Q 2550 2741 2406 2741 
Q 2056 2741 1856 2470 
Q 1656 2200 1656 1722 
L 1656 0 
L 538 0 
L 538 4863 
L 1656 4863 
L 1656 2988 
Q 1909 3294 2193 3439 
Q 2478 3584 2822 3584 
Q 3428 3584 3742 3212 
Q 4056 2841 4056 2131 
z
" transform="scale(0.015625)"/>
     <path id="DejaVuSans-Bold-63" d="M 3366 3391 
L 3366 2478 
Q 3138 2634 2908 2709 
Q 2678 2784 2431 2784 
Q 1963 2784 1702 2511 
Q 1441 2238 1441 1747 
Q 1441 1256 1702 982 
Q 1963 709 2431 709 
Q 2694 709 2930 787 
Q 3166 866 3366 1019 
L 3366 103 
Q 3103 6 2833 -42 
Q 2563 -91 2291 -91 
Q 1344 -91 809 395 
Q 275 881 275 1747 
Q 275 2613 809 3098 
Q 1344 3584 2291 3584 
Q 2566 3584 2833 3536 
Q 3100 3488 3366 3391 
z
" transform="scale(0.015625)"/>
     <path id="DejaVuSans-Bold-6b" d="M 538 4863 
L 1656 4863 
L 1656 2216 
L 2944 3500 
L 4244 3500 
L 2534 1894 
L 4378 0 
L 3022 0 
L 1656 1459 
L 1656 0 
L 538 0 
L 538 4863 
z
" transform="scale(0.015625)"/>
    </defs>
    <use xlink:href="#DejaVuSans-Bold-4f"/>
    <use xlink:href="#DejaVuSans-Bold-75" x="85.009766"/>
    <use xlink:href="#DejaVuSans-Bold-74" x="156.201172"/>
    <use xlink:href="#DejaVuSans-Bold-70" x="204.003906"/>
    <use xlink:href="#DejaVuSans-Bold-75" x="275.585938"/>
    <use xlink:href="#DejaVuSans-Bold-74" x="346.777344"/>
    <use xlink:href="#DejaVuSans-Bold-20" x="394.580078"/>
    <use xlink:href="#DejaVuSans-Bold-47" x="429.394531"/>
    <use xlink:href="#DejaVuSans-Bold-61" x="511.474609"/>
    <use xlink:href="#DejaVuSans-Bold-70" x="578.955078"/>
    <use xlink:href="#DejaVuSans-Bold-20" x="650.537109"/>
    <use xlink:href="#DejaVuSans-Bold-2d" x="685.351562"/>
    <use xlink:href="#DejaVuSans-Bold-20" x="726.855469"/>
    <use xlink:href="#DejaVuSans-Bold-52" x="761.669922"/>
    <use xlink:href="#DejaVuSans-Bold-65" x="838.671875"/>
    <use xlink:href="#DejaVuSans-Bold-73" x="906.494141"/>
    <use xlink:href="#DejaVuSans-Bold-70" x="966.015625"/>
    <use xlink:href="#DejaVuSans-Bold-6f" x="1037.597656"/>
    <use xlink:href="#DejaVuSans-Bold-6e" x="1106.298828"/>
    <use xlink:href="#DejaVuSans-Bold-73" x="1177.490234"/>
    <use xlink:href="#DejaVuSans-Bold-65" x="1237.011719"/>
    <use xlink:href="#DejaVuSans-Bold-20" x="1304.833984"/>
    <use xlink:href="#DejaVuSans-Bold-74" x="1339.648438"/>
    <use xlink:href="#DejaVuSans-Bold-6f" x="1387.451172"/>
    <use xlink:href="#DejaVuSans-Bold-20" x="1456.152344"/>
    <use xlink:href="#DejaVuSans-Bold-53" x="1490.966797"/>
    <use xlink:href="#DejaVuSans-Bold-68" x="1562.988281"/>
    <use xlink:href="#DejaVuSans-Bold-6f" x="1634.179688"/>
    <use xlink:href="#DejaVuSans-Bold-63" x="1702.880859"/>
    <use xlink:href="#DejaVuSans-Bold-6b" x="1762.158203"/>
    <use xlink:href="#DejaVuSans-Bold-73" x="1828.662109"/>
    <use xlink:href="#DejaVuSans-Bold-20" x="1888.183594"/>
   </g>
   <!--  -->
   <g transform="translate(432 26.8755)scale(0.12 -0.12)"/>
  </g>
  <g id="legend_1">
   <g id="line2d_67">
    <path d="M 25.089062 30.378437 
L 35.089062 30.378437 
L 45.089062 30.378437 
" style="fill: none; stroke: #0000ff; stroke-width: 1.5; stroke-linecap: square"/>
   </g>
   <g id="text_32">
    <!-- Gali &amp; Monacelli - TFP Shock -->
    <g transform="translate(53.089062 33.878437)scale(0.1 -0.1)">
     <defs>
      <path id="DejaVuSans-61" d="M 2194 1759 
Q 1497 1759 1228 1600 
Q 959 1441 959 1056 
Q 959 750 1161 570 
Q 1363 391 1709 391 
Q 2188 391 2477 730 
Q 2766 1069 2766 1631 
L 2766 1759 
L 2194 1759 
z
M 3341 1997 
L 3341 0 
L 2766 0 
L 2766 531 
Q 2569 213 2275 61 
Q 1981 -91 1556 -91 
Q 1019 -91 701 211 
Q 384 513 384 1019 
Q 384 1609 779 1909 
Q 1175 2209 1959 2209 
L 2766 2209 
L 2766 2266 
Q 2766 2663 2505 2880 
Q 2244 3097 1772 3097 
Q 1472 3097 1187 3025 
Q 903 2953 641 2809 
L 641 3341 
Q 956 3463 1253 3523 
Q 1550 3584 1831 3584 
Q 2591 3584 2966 3190 
Q 3341 2797 3341 1997 
z
" transform="scale(0.015625)"/>
      <path id="DejaVuSans-6c" d="M 603 4863 
L 1178 4863 
L 1178 0 
L 603 0 
L 603 4863 
z
" transform="scale(0.015625)"/>
      <path id="DejaVuSans-69" d="M 603 3500 
L 1178 3500 
L 1178 0 
L 603 0 
L 603 3500 
z
M 603 4863 
L 1178 4863 
L 1178 4134 
L 603 4134 
L 603 4863 
z
" transform="scale(0.015625)"/>
      <path id="DejaVuSans-20" transform="scale(0.015625)"/>
      <path id="DejaVuSans-26" d="M 1556 2509 
Q 1272 2256 1139 2004 
Q 1006 1753 1006 1478 
Q 1006 1022 1337 719 
Q 1669 416 2169 416 
Q 2466 416 2725 514 
Q 2984 613 3213 813 
L 1556 2509 
z
M 1997 2859 
L 3584 1234 
Q 3769 1513 3872 1830 
Q 3975 2147 3994 2503 
L 4575 2503 
Q 4538 2091 4375 1687 
Q 4213 1284 3922 891 
L 4794 0 
L 4006 0 
L 3559 459 
Q 3234 181 2878 45 
Q 2522 -91 2113 -91 
Q 1359 -91 881 339 
Q 403 769 403 1441 
Q 403 1841 612 2192 
Q 822 2544 1241 2853 
Q 1091 3050 1012 3245 
Q 934 3441 934 3628 
Q 934 4134 1281 4442 
Q 1628 4750 2203 4750 
Q 2463 4750 2720 4694 
Q 2978 4638 3244 4525 
L 3244 3956 
Q 2972 4103 2725 4179 
Q 2478 4256 2266 4256 
Q 1938 4256 1733 4082 
Q 1528 3909 1528 3634 
Q 1528 3475 1620 3314 
Q 1713 3153 1997 2859 
z
" transform="scale(0.015625)"/>
      <path id="DejaVuSans-4d" d="M 628 4666 
L 1569 4666 
L 2759 1491 
L 3956 4666 
L 4897 4666 
L 4897 0 
L 4281 0 
L 4281 4097 
L 3078 897 
L 2444 897 
L 1241 4097 
L 1241 0 
L 628 0 
L 628 4666 
z
" transform="scale(0.015625)"/>
      <path id="DejaVuSans-6f" d="M 1959 3097 
Q 1497 3097 1228 2736 
Q 959 2375 959 1747 
Q 959 1119 1226 758 
Q 1494 397 1959 397 
Q 2419 397 2687 759 
Q 2956 1122 2956 1747 
Q 2956 2369 2687 2733 
Q 2419 3097 1959 3097 
z
M 1959 3584 
Q 2709 3584 3137 3096 
Q 3566 2609 3566 1747 
Q 3566 888 3137 398 
Q 2709 -91 1959 -91 
Q 1206 -91 779 398 
Q 353 888 353 1747 
Q 353 2609 779 3096 
Q 1206 3584 1959 3584 
z
" transform="scale(0.015625)"/>
      <path id="DejaVuSans-6e" d="M 3513 2113 
L 3513 0 
L 2938 0 
L 2938 2094 
Q 2938 2591 2744 2837 
Q 2550 3084 2163 3084 
Q 1697 3084 1428 2787 
Q 1159 2491 1159 1978 
L 1159 0 
L 581 0 
L 581 3500 
L 1159 3500 
L 1159 2956 
Q 1366 3272 1645 3428 
Q 1925 3584 2291 3584 
Q 2894 3584 3203 3211 
Q 3513 2838 3513 2113 
z
" transform="scale(0.015625)"/>
      <path id="DejaVuSans-63" d="M 3122 3366 
L 3122 2828 
Q 2878 2963 2633 3030 
Q 2388 3097 2138 3097 
Q 1578 3097 1268 2742 
Q 959 2388 959 1747 
Q 959 1106 1268 751 
Q 1578 397 2138 397 
Q 2388 397 2633 464 
Q 2878 531 3122 666 
L 3122 134 
Q 2881 22 2623 -34 
Q 2366 -91 2075 -91 
Q 1284 -91 818 406 
Q 353 903 353 1747 
Q 353 2603 823 3093 
Q 1294 3584 2113 3584 
Q 2378 3584 2631 3529 
Q 2884 3475 3122 3366 
z
" transform="scale(0.015625)"/>
      <path id="DejaVuSans-65" d="M 3597 1894 
L 3597 1613 
L 953 1613 
Q 991 1019 1311 708 
Q 1631 397 2203 397 
Q 2534 397 2845 478 
Q 3156 559 3463 722 
L 3463 178 
Q 3153 47 2828 -22 
Q 2503 -91 2169 -91 
Q 1331 -91 842 396 
Q 353 884 353 1716 
Q 353 2575 817 3079 
Q 1281 3584 2069 3584 
Q 2775 3584 3186 3129 
Q 3597 2675 3597 1894 
z
M 3022 2063 
Q 3016 2534 2758 2815 
Q 2500 3097 2075 3097 
Q 1594 3097 1305 2825 
Q 1016 2553 972 2059 
L 3022 2063 
z
" transform="scale(0.015625)"/>
      <path id="DejaVuSans-2d" d="M 313 2009 
L 1997 2009 
L 1997 1497 
L 313 1497 
L 313 2009 
z
" transform="scale(0.015625)"/>
      <path id="DejaVuSans-46" d="M 628 4666 
L 3309 4666 
L 3309 4134 
L 1259 4134 
L 1259 2759 
L 3109 2759 
L 3109 2228 
L 1259 2228 
L 1259 0 
L 628 0 
L 628 4666 
z
" transform="scale(0.015625)"/>
      <path id="DejaVuSans-53" d="M 3425 4513 
L 3425 3897 
Q 3066 4069 2747 4153 
Q 2428 4238 2131 4238 
Q 1616 4238 1336 4038 
Q 1056 3838 1056 3469 
Q 1056 3159 1242 3001 
Q 1428 2844 1947 2747 
L 2328 2669 
Q 3034 2534 3370 2195 
Q 3706 1856 3706 1288 
Q 3706 609 3251 259 
Q 2797 -91 1919 -91 
Q 1588 -91 1214 -16 
Q 841 59 441 206 
L 441 856 
Q 825 641 1194 531 
Q 1563 422 1919 422 
Q 2459 422 2753 634 
Q 3047 847 3047 1241 
Q 3047 1584 2836 1778 
Q 2625 1972 2144 2069 
L 1759 2144 
Q 1053 2284 737 2584 
Q 422 2884 422 3419 
Q 422 4038 858 4394 
Q 1294 4750 2059 4750 
Q 2388 4750 2728 4690 
Q 3069 4631 3425 4513 
z
" transform="scale(0.015625)"/>
      <path id="DejaVuSans-68" d="M 3513 2113 
L 3513 0 
L 2938 0 
L 2938 2094 
Q 2938 2591 2744 2837 
Q 2550 3084 2163 3084 
Q 1697 3084 1428 2787 
Q 1159 2491 1159 1978 
L 1159 0 
L 581 0 
L 581 4863 
L 1159 4863 
L 1159 2956 
Q 1366 3272 1645 3428 
Q 1925 3584 2291 3584 
Q 2894 3584 3203 3211 
Q 3513 2838 3513 2113 
z
" transform="scale(0.015625)"/>
      <path id="DejaVuSans-6b" d="M 581 4863 
L 1159 4863 
L 1159 1991 
L 2875 3500 
L 3609 3500 
L 1753 1863 
L 3688 0 
L 2938 0 
L 1159 1709 
L 1159 0 
L 581 0 
L 581 4863 
z
" transform="scale(0.015625)"/>
     </defs>
     <use xlink:href="#DejaVuSans-47"/>
     <use xlink:href="#DejaVuSans-61" x="77.490234"/>
     <use xlink:href="#DejaVuSans-6c" x="138.769531"/>
     <use xlink:href="#DejaVuSans-69" x="166.552734"/>
     <use xlink:href="#DejaVuSans-20" x="194.335938"/>
     <use xlink:href="#DejaVuSans-26" x="226.123047"/>
     <use xlink:href="#DejaVuSans-20" x="304.101562"/>
     <use xlink:href="#DejaVuSans-4d" x="335.888672"/>
     <use xlink:href="#DejaVuSans-6f" x="422.167969"/>
     <use xlink:href="#DejaVuSans-6e" x="483.349609"/>
     <use xlink:href="#DejaVuSans-61" x="546.728516"/>
     <use xlink:href="#DejaVuSans-63" x="608.007812"/>
     <use xlink:href="#DejaVuSans-65" x="662.988281"/>
     <use xlink:href="#DejaVuSans-6c" x="724.511719"/>
     <use xlink:href="#DejaVuSans-6c" x="752.294922"/>
     <use xlink:href="#DejaVuSans-69" x="780.078125"/>
     <use xlink:href="#DejaVuSans-20" x="807.861328"/>
     <use xlink:href="#DejaVuSans-2d" x="839.648438"/>
     <use xlink:href="#DejaVuSans-20" x="875.732422"/>
     <use xlink:href="#DejaVuSans-54" x="907.519531"/>
     <use xlink:href="#DejaVuSans-46" x="968.603516"/>
     <use xlink:href="#DejaVuSans-50" x="1026.123047"/>
     <use xlink:href="#DejaVuSans-20" x="1086.425781"/>
     <use xlink:href="#DejaVuSans-53" x="1118.212891"/>
     <use xlink:href="#DejaVuSans-68" x="1181.689453"/>
     <use xlink:href="#DejaVuSans-6f" x="1245.068359"/>
     <use xlink:href="#DejaVuSans-63" x="1306.25"/>
     <use xlink:href="#DejaVuSans-6b" x="1361.230469"/>
    </g>
   </g>
   <g id="line2d_68">
    <path d="M 215 30.378437 
L 225 30.378437 
L 235 30.378437 
" style="fill: none; stroke-dasharray: 5.55,2.4; stroke-dashoffset: 0; stroke: #0000ff; stroke-width: 1.5"/>
   </g>
   <g id="text_33">
    <!-- Our Modification - TFP Shock -->
    <g transform="translate(243 33.878437)scale(0.1 -0.1)">
     <defs>
      <path id="DejaVuSans-4f" d="M 2522 4238 
Q 1834 4238 1429 3725 
Q 1025 3213 1025 2328 
Q 1025 1447 1429 934 
Q 1834 422 2522 422 
Q 3209 422 3611 934 
Q 4013 1447 4013 2328 
Q 4013 3213 3611 3725 
Q 3209 4238 2522 4238 
z
M 2522 4750 
Q 3503 4750 4090 4092 
Q 4678 3434 4678 2328 
Q 4678 1225 4090 567 
Q 3503 -91 2522 -91 
Q 1538 -91 948 565 
Q 359 1222 359 2328 
Q 359 3434 948 4092 
Q 1538 4750 2522 4750 
z
" transform="scale(0.015625)"/>
      <path id="DejaVuSans-75" d="M 544 1381 
L 544 3500 
L 1119 3500 
L 1119 1403 
Q 1119 906 1312 657 
Q 1506 409 1894 409 
Q 2359 409 2629 706 
Q 2900 1003 2900 1516 
L 2900 3500 
L 3475 3500 
L 3475 0 
L 2900 0 
L 2900 538 
Q 2691 219 2414 64 
Q 2138 -91 1772 -91 
Q 1169 -91 856 284 
Q 544 659 544 1381 
z
M 1991 3584 
L 1991 3584 
z
" transform="scale(0.015625)"/>
      <path id="DejaVuSans-72" d="M 2631 2963 
Q 2534 3019 2420 3045 
Q 2306 3072 2169 3072 
Q 1681 3072 1420 2755 
Q 1159 2438 1159 1844 
L 1159 0 
L 581 0 
L 581 3500 
L 1159 3500 
L 1159 2956 
Q 1341 3275 1631 3429 
Q 1922 3584 2338 3584 
Q 2397 3584 2469 3576 
Q 2541 3569 2628 3553 
L 2631 2963 
z
" transform="scale(0.015625)"/>
      <path id="DejaVuSans-64" d="M 2906 2969 
L 2906 4863 
L 3481 4863 
L 3481 0 
L 2906 0 
L 2906 525 
Q 2725 213 2448 61 
Q 2172 -91 1784 -91 
Q 1150 -91 751 415 
Q 353 922 353 1747 
Q 353 2572 751 3078 
Q 1150 3584 1784 3584 
Q 2172 3584 2448 3432 
Q 2725 3281 2906 2969 
z
M 947 1747 
Q 947 1113 1208 752 
Q 1469 391 1925 391 
Q 2381 391 2643 752 
Q 2906 1113 2906 1747 
Q 2906 2381 2643 2742 
Q 2381 3103 1925 3103 
Q 1469 3103 1208 2742 
Q 947 2381 947 1747 
z
" transform="scale(0.015625)"/>
      <path id="DejaVuSans-66" d="M 2375 4863 
L 2375 4384 
L 1825 4384 
Q 1516 4384 1395 4259 
Q 1275 4134 1275 3809 
L 1275 3500 
L 2222 3500 
L 2222 3053 
L 1275 3053 
L 1275 0 
L 697 0 
L 697 3053 
L 147 3053 
L 147 3500 
L 697 3500 
L 697 3744 
Q 697 4328 969 4595 
Q 1241 4863 1831 4863 
L 2375 4863 
z
" transform="scale(0.015625)"/>
      <path id="DejaVuSans-74" d="M 1172 4494 
L 1172 3500 
L 2356 3500 
L 2356 3053 
L 1172 3053 
L 1172 1153 
Q 1172 725 1289 603 
Q 1406 481 1766 481 
L 2356 481 
L 2356 0 
L 1766 0 
Q 1100 0 847 248 
Q 594 497 594 1153 
L 594 3053 
L 172 3053 
L 172 3500 
L 594 3500 
L 594 4494 
L 1172 4494 
z
" transform="scale(0.015625)"/>
     </defs>
     <use xlink:href="#DejaVuSans-4f"/>
     <use xlink:href="#DejaVuSans-75" x="78.710938"/>
     <use xlink:href="#DejaVuSans-72" x="142.089844"/>
     <use xlink:href="#DejaVuSans-20" x="183.203125"/>
     <use xlink:href="#DejaVuSans-4d" x="214.990234"/>
     <use xlink:href="#DejaVuSans-6f" x="301.269531"/>
     <use xlink:href="#DejaVuSans-64" x="362.451172"/>
     <use xlink:href="#DejaVuSans-69" x="425.927734"/>
     <use xlink:href="#DejaVuSans-66" x="453.710938"/>
     <use xlink:href="#DejaVuSans-69" x="488.916016"/>
     <use xlink:href="#DejaVuSans-63" x="516.699219"/>
     <use xlink:href="#DejaVuSans-61" x="571.679688"/>
     <use xlink:href="#DejaVuSans-74" x="632.958984"/>
     <use xlink:href="#DejaVuSans-69" x="672.167969"/>
     <use xlink:href="#DejaVuSans-6f" x="699.951172"/>
     <use xlink:href="#DejaVuSans-6e" x="761.132812"/>
     <use xlink:href="#DejaVuSans-20" x="824.511719"/>
     <use xlink:href="#DejaVuSans-2d" x="856.298828"/>
     <use xlink:href="#DejaVuSans-20" x="892.382812"/>
     <use xlink:href="#DejaVuSans-54" x="924.169922"/>
     <use xlink:href="#DejaVuSans-46" x="985.253906"/>
     <use xlink:href="#DejaVuSans-50" x="1042.773438"/>
     <use xlink:href="#DejaVuSans-20" x="1103.076172"/>
     <use xlink:href="#DejaVuSans-53" x="1134.863281"/>
     <use xlink:href="#DejaVuSans-68" x="1198.339844"/>
     <use xlink:href="#DejaVuSans-6f" x="1261.71875"/>
     <use xlink:href="#DejaVuSans-63" x="1322.900391"/>
     <use xlink:href="#DejaVuSans-6b" x="1377.880859"/>
    </g>
   </g>
   <g id="line2d_69">
    <path d="M 406.576562 30.378437 
L 416.576562 30.378437 
L 426.576562 30.378437 
" style="fill: none; stroke: #ff0000; stroke-width: 1.5; stroke-linecap: square"/>
   </g>
   <g id="text_34">
    <!-- Gali &amp; Monacelli - World GDP Shock -->
    <g transform="translate(434.576562 33.878437)scale(0.1 -0.1)">
     <defs>
      <path id="DejaVuSans-57" d="M 213 4666 
L 850 4666 
L 1831 722 
L 2809 4666 
L 3519 4666 
L 4500 722 
L 5478 4666 
L 6119 4666 
L 4947 0 
L 4153 0 
L 3169 4050 
L 2175 0 
L 1381 0 
L 213 4666 
z
" transform="scale(0.015625)"/>
     </defs>
     <use xlink:href="#DejaVuSans-47"/>
     <use xlink:href="#DejaVuSans-61" x="77.490234"/>
     <use xlink:href="#DejaVuSans-6c" x="138.769531"/>
     <use xlink:href="#DejaVuSans-69" x="166.552734"/>
     <use xlink:href="#DejaVuSans-20" x="194.335938"/>
     <use xlink:href="#DejaVuSans-26" x="226.123047"/>
     <use xlink:href="#DejaVuSans-20" x="304.101562"/>
     <use xlink:href="#DejaVuSans-4d" x="335.888672"/>
     <use xlink:href="#DejaVuSans-6f" x="422.167969"/>
     <use xlink:href="#DejaVuSans-6e" x="483.349609"/>
     <use xlink:href="#DejaVuSans-61" x="546.728516"/>
     <use xlink:href="#DejaVuSans-63" x="608.007812"/>
     <use xlink:href="#DejaVuSans-65" x="662.988281"/>
     <use xlink:href="#DejaVuSans-6c" x="724.511719"/>
     <use xlink:href="#DejaVuSans-6c" x="752.294922"/>
     <use xlink:href="#DejaVuSans-69" x="780.078125"/>
     <use xlink:href="#DejaVuSans-20" x="807.861328"/>
     <use xlink:href="#DejaVuSans-2d" x="839.648438"/>
     <use xlink:href="#DejaVuSans-20" x="875.732422"/>
     <use xlink:href="#DejaVuSans-57" x="907.519531"/>
     <use xlink:href="#DejaVuSans-6f" x="1000.521484"/>
     <use xlink:href="#DejaVuSans-72" x="1061.703125"/>
     <use xlink:href="#DejaVuSans-6c" x="1102.816406"/>
     <use xlink:href="#DejaVuSans-64" x="1130.599609"/>
     <use xlink:href="#DejaVuSans-20" x="1194.076172"/>
     <use xlink:href="#DejaVuSans-47" x="1225.863281"/>
     <use xlink:href="#DejaVuSans-44" x="1303.353516"/>
     <use xlink:href="#DejaVuSans-50" x="1380.355469"/>
     <use xlink:href="#DejaVuSans-20" x="1440.658203"/>
     <use xlink:href="#DejaVuSans-53" x="1472.445312"/>
     <use xlink:href="#DejaVuSans-68" x="1535.921875"/>
     <use xlink:href="#DejaVuSans-6f" x="1599.300781"/>
     <use xlink:href="#DejaVuSans-63" x="1660.482422"/>
     <use xlink:href="#DejaVuSans-6b" x="1715.462891"/>
    </g>
   </g>
   <g id="line2d_70">
    <path d="M 631.910938 30.378437 
L 641.910938 30.378437 
L 651.910938 30.378437 
" style="fill: none; stroke-dasharray: 5.55,2.4; stroke-dashoffset: 0; stroke: #ff0000; stroke-width: 1.5"/>
   </g>
   <g id="text_35">
    <!-- Our Modification - World GDP Shock -->
    <g transform="translate(659.910938 33.878437)scale(0.1 -0.1)">
     <use xlink:href="#DejaVuSans-4f"/>
     <use xlink:href="#DejaVuSans-75" x="78.710938"/>
     <use xlink:href="#DejaVuSans-72" x="142.089844"/>
     <use xlink:href="#DejaVuSans-20" x="183.203125"/>
     <use xlink:href="#DejaVuSans-4d" x="214.990234"/>
     <use xlink:href="#DejaVuSans-6f" x="301.269531"/>
     <use xlink:href="#DejaVuSans-64" x="362.451172"/>
     <use xlink:href="#DejaVuSans-69" x="425.927734"/>
     <use xlink:href="#DejaVuSans-66" x="453.710938"/>
     <use xlink:href="#DejaVuSans-69" x="488.916016"/>
     <use xlink:href="#DejaVuSans-63" x="516.699219"/>
     <use xlink:href="#DejaVuSans-61" x="571.679688"/>
     <use xlink:href="#DejaVuSans-74" x="632.958984"/>
     <use xlink:href="#DejaVuSans-69" x="672.167969"/>
     <use xlink:href="#DejaVuSans-6f" x="699.951172"/>
     <use xlink:href="#DejaVuSans-6e" x="761.132812"/>
     <use xlink:href="#DejaVuSans-20" x="824.511719"/>
     <use xlink:href="#DejaVuSans-2d" x="856.298828"/>
     <use xlink:href="#DejaVuSans-20" x="892.382812"/>
     <use xlink:href="#DejaVuSans-57" x="924.169922"/>
     <use xlink:href="#DejaVuSans-6f" x="1017.171875"/>
     <use xlink:href="#DejaVuSans-72" x="1078.353516"/>
     <use xlink:href="#DejaVuSans-6c" x="1119.466797"/>
     <use xlink:href="#DejaVuSans-64" x="1147.25"/>
     <use xlink:href="#DejaVuSans-20" x="1210.726562"/>
     <use xlink:href="#DejaVuSans-47" x="1242.513672"/>
     <use xlink:href="#DejaVuSans-44" x="1320.003906"/>
     <use xlink:href="#DejaVuSans-50" x="1397.005859"/>
     <use xlink:href="#DejaVuSans-20" x="1457.308594"/>
     <use xlink:href="#DejaVuSans-53" x="1489.095703"/>
     <use xlink:href="#DejaVuSans-68" x="1552.572266"/>
     <use xlink:href="#DejaVuSans-6f" x="1615.951172"/>
     <use xlink:href="#DejaVuSans-63" x="1677.132812"/>
     <use xlink:href="#DejaVuSans-6b" x="1732.113281"/>
    </g>
   </g>
  </g>
 </g>
 <defs>
  <clipPath id="p7d66e7c3d2">
   <rect x="48.31" y="65.616" width="236.15" height="122.504"/>
  </clipPath>
  <clipPath id="pb423bd8859">
   <rect x="332.68" y="65.616" width="236.15" height="122.504"/>
  </clipPath>
  <clipPath id="pd158224bc0">
   <rect x="617.05" y="65.616" width="236.15" height="122.504"/>
  </clipPath>
 </defs>
</svg>
